<?xml version="1.0" encoding="UTF-8" standalone="no"?>
<!-- Created with Inkscape (http://www.inkscape.org/) -->

<svg
   xmlns:dc="http://purl.org/dc/elements/1.1/"
   xmlns:cc="http://creativecommons.org/ns#"
   xmlns:rdf="http://www.w3.org/1999/02/22-rdf-syntax-ns#"
   xmlns:svg="http://www.w3.org/2000/svg"
   xmlns="http://www.w3.org/2000/svg"
   xmlns:sodipodi="http://sodipodi.sourceforge.net/DTD/sodipodi-0.dtd"
   xmlns:inkscape="http://www.inkscape.org/namespaces/inkscape"
   width="1052.3622"
   height="744.09448"
   id="svg2"
   version="1.1"
   inkscape:version="0.48.3.1 r9886"
   sodipodi:docname="New document 1">
  <defs
     id="defs4" />
  <sodipodi:namedview
     id="base"
     pagecolor="#ffffff"
     bordercolor="#666666"
     borderopacity="1.0"
     inkscape:pageopacity="0.0"
     inkscape:pageshadow="2"
     inkscape:zoom="0.7"
     inkscape:cx="375"
     inkscape:cy="377.7455"
     inkscape:document-units="px"
     inkscape:current-layer="layer1"
     showgrid="false"
     inkscape:window-width="1366"
     inkscape:window-height="744"
     inkscape:window-x="0"
     inkscape:window-y="24"
     inkscape:window-maximized="1" />
  <metadata
     id="metadata7">
    <rdf:RDF>
      <cc:Work
         rdf:about="">
        <dc:format>image/svg+xml</dc:format>
        <dc:type
           rdf:resource="http://purl.org/dc/dcmitype/StillImage" />
        <dc:title></dc:title>
      </cc:Work>
    </rdf:RDF>
  </metadata>
  <g
     inkscape:label="Layer 1"
     inkscape:groupmode="layer"
     id="layer1"
     transform="translate(0,-308.2677)">
    <path
       style="fill:#000080;stroke:#000000;stroke-width:1px;stroke-linecap:butt;stroke-linejoin:miter;stroke-opacity:1"
       d="m 1.4285714,212.66591 c 6.6666667,0 13.3333336,0 19.9999996,0 2.380953,0 4.771683,-0.21556 7.142858,0 2.884658,0.26224 5.683406,1.20642 8.571428,1.42857 6.64703,0.51131 13.35297,-0.51131 20,0 2.888022,0.22216 5.684881,1.18803 8.571429,1.42857 2.847273,0.23728 5.714285,0 8.571428,0 5.714286,0 11.428572,0 17.142857,0 5.238096,0 10.476189,0 15.714289,0 1.90476,0 3.82117,0.21035 5.71428,0 2.41326,-0.26814 4.73351,-1.1274 7.14286,-1.42857 1.41754,-0.17719 2.87658,0.23486 4.28571,0 1.48536,-0.24756 2.80911,-1.13325 4.28572,-1.42857 0.93388,-0.18678 1.90476,0 2.85714,0 5.40527,0 10.51334,0.52178 15.71429,-1.42857 1.99399,-0.74775 3.94236,-1.67586 5.71428,-2.85714 1.12067,-0.74711 1.90476,-1.90477 2.85715,-2.85715 0.47619,-0.47619 0.82623,-1.1274 1.42857,-1.42857 0.42591,-0.21296 0.95238,0 1.42857,0 0.95238,0 1.93008,0.21813 2.85714,0 14.3919,-3.38633 28.43532,-8.17203 42.85714,-11.42857 7.56145,-1.70742 15.16055,-3.36212 22.85715,-4.28571 4.25518,-0.51063 8.57143,0 12.85714,0 4.28571,0 8.57143,0 12.85714,0 1.90476,0 3.81898,0.18953 5.71429,0 2.88218,-0.28822 5.68488,-1.18803 8.57143,-1.42858 2.84727,-0.23727 5.71428,0 8.57143,0 2.38095,0 4.7619,0 7.14285,0 1.90476,0 3.80953,0 5.71429,0 1.42857,0 2.87658,-0.23485 4.28571,0 6.46498,1.0775 2.71405,2.20402 10,4.28572 1.37361,0.39246 2.8715,-0.20203 4.28572,0 1.94365,0.27766 3.76606,1.18504 5.71428,1.42857 3.3076,0.41345 6.66667,0 10,0 1.42857,0 2.8715,-0.20203 4.28572,0 1.94365,0.27767 3.82644,0.88919 5.71428,1.42857 1.44791,0.41369 2.78734,1.27874 4.28572,1.42857 3.31679,0.33168 6.66666,0 10,0 1.90476,0 3.82866,-0.26937 5.71428,0 1.49072,0.21296 2.80036,1.18102 4.28572,1.42857 1.40913,0.23486 2.91211,-0.39245 4.28571,0 2.04765,0.58505 3.69398,2.18371 5.71429,2.85715 0.90351,0.30117 1.92325,-0.18678 2.85714,0 1.4766,0.29532 2.82483,1.06335 4.28571,1.42857 2.35561,0.5889 4.7793,0.87244 7.14286,1.42857 5.73358,1.34908 11.33285,3.31738 17.14286,4.28571 8.50683,1.41781 17.16779,1.70222 25.71428,2.85715 9.0772,1.22665 18.02861,3.37429 27.14286,4.28571 5.2121,0.52121 10.48779,-0.34843 15.71429,0 1.95903,0.1306 3.78903,1.04352 5.71428,1.42857 0.46695,0.0934 0.95238,0 1.42857,0 1.90477,0 3.80953,0 5.71429,0 0.47619,0 0.95886,-0.0783 1.42857,0 2.39507,0.39918 4.7268,1.18697 7.14286,1.42858 2.36913,0.23691 4.7619,0 7.14286,0 3.80952,0 7.61904,0 11.42857,0 2.85714,0 5.71428,0 8.57143,0 2.38095,0 4.78029,0.29532 7.14285,0 1.49422,-0.18678 2.80036,-1.18102 4.28572,-1.42858 1.91803,-0.31967 9.26191,0 11.42857,0 8.57143,0 17.14286,0 25.71428,0 3.33334,0 6.71202,0.548 10,0 2.52948,-0.42158 4.63956,-2.30085 7.14286,-2.85714 1.85941,-0.4132 3.82867,0.26937 5.71429,0 1.49071,-0.21296 2.85714,-0.95238 4.28571,-1.42857 1.42857,-0.47619 2.93885,-0.75514 4.28572,-1.42857 0.60233,-0.30117 0.78969,-1.21561 1.42857,-1.42857 0.90351,-0.30117 1.95363,0.30117 2.85714,0 2.02031,-0.67344 3.64828,-2.34065 5.71429,-2.85715 1.84789,-0.46197 3.85488,0.4132 5.71428,0 2.5033,-0.55629 4.73289,-1.98079 7.14286,-2.85714 3.22427,-1.17246 10.34986,-3.62974 14.28571,-4.28571 0.93943,-0.15657 1.90477,0 2.85715,0 1.42857,0 2.85714,0 4.28571,0 4.76191,0 9.52381,0 14.28571,0 2.85715,0 5.72416,0.23727 8.57143,0 26.34795,-2.19567 -15.8817,-1.17285 22.85715,-2.85715 6.18463,-0.26889 12.38095,0 18.57142,0 6.66667,0 13.33334,0 20,0 2.85715,0 11.42858,0 8.57143,0 -5.71428,0 -21.89743,3.16972 -17.14285,0 4.85213,-3.23475 21.91781,-2.85714 30,-2.85714 37.26356,0 -16.3965,-0.35591 30,1.42857 6.66174,0.25622 13.36071,-0.60357 20,0 9.12209,0.82928 18.02076,3.45644 27.14285,4.28572 6.63929,0.60357 13.33334,0 20,0 4.76191,0 9.52381,0 14.28572,0 4.28571,0 8.57977,-0.26734 12.85714,0 3.36062,0.21004 6.64665,1.12372 10,1.42857 1.89694,0.17245 3.80952,0 5.71429,0 5.23809,0 10.48212,-0.24915 15.71428,0 57.05309,4.3887 -19.85158,-1.04945 37.14286,1.42857 4.78114,0.20787 9.51066,1.11023 14.28571,1.42857 2.37568,0.15838 4.77372,-0.23691 7.14286,0 2.41605,0.24161 4.72472,1.20874 7.14286,1.42857 2.84541,0.25868 5.78232,-0.6198 8.57143,0 1.67604,0.37246 2.75004,2.08931 4.28571,2.85714 1.34687,0.67344 2.93884,0.75514 4.28571,1.42858 0.60234,0.30117 0.77525,1.26524 1.42858,1.42857 1.1244,0.2811 9.96658,0 11.42857,0 1.42857,0 2.85714,0 4.28574,0 0.4762,0 1.0918,0.33672 1.4285,0 0.3368,-0.33672 -0.3367,-1.09186 0,-1.42857 0.3368,-0.33672 0.9536,-0.0339 1.4286,0 8.0809,0.5772 14.1377,1.42857 21.4286,1.42857 7.1408,0 3.1672,0.11549 18.5714,-4.28572 1.0238,-0.29252 1.8006,-1.2965 2.8572,-1.42857 2.835,-0.35438 5.7531,0.46971 8.5714,0 0.4697,-0.0783 -0.4697,-1.35028 0,-1.42857 2.8183,-0.46971 5.7143,0 8.5714,0 2.8572,0 5.7143,0 8.5714,0 0.4762,0 1.0919,0.33672 1.4286,0 0.3367,-0.33672 0,-0.95238 0,-1.42857"
       id="path2985"
       inkscape:connector-curvature="0"
       transform="translate(0,308.2677)" />
    <path
       style="fill:none;stroke:#000000;stroke-width:1px;stroke-linecap:butt;stroke-linejoin:miter;stroke-opacity:1"
       d="m 385.71429,162.66591 c 0.95238,1.90476 1.49381,4.07829 2.85714,5.71429 1.09915,1.31898 2.91217,1.82698 4.28571,2.85714 2.43929,1.82946 5.13501,3.4196 7.14286,5.71428 1.40234,1.60268 1.90476,3.80953 2.85714,5.71429 0.47619,0.95238 0.83793,1.97118 1.42857,2.85714 0.37356,0.56034 1.12741,0.82624 1.42858,1.42857 0.21295,0.42592 -0.17686,0.98644 0,1.42858 0.79091,1.97727 2.06623,3.73701 2.85714,5.71428 1.11851,2.79629 1.24024,6.03058 2.85714,8.57143 3.9535,6.21264 6.58651,6.36845 11.42857,10 0.53875,0.40406 0.88983,1.02451 1.42857,1.42857 1.37355,1.03016 3.07167,1.64309 4.28572,2.85715 0.75292,0.75292 0.95238,1.90476 1.42857,2.85714 0.95238,1.90476 2.01826,3.75688 2.85714,5.71428 0.59319,1.38409 1.06335,2.82483 1.42857,4.28572 0.1155,0.46197 -0.33671,1.09185 0,1.42857 0.33672,0.33672 0.95239,0 1.42858,0 1.42857,1.42857 3.07353,2.66947 4.28571,4.28571 0.40995,0.5466 -0.41408,6.3147 0,7.14286 0.21296,0.42592 1.00265,-0.21296 1.42857,0 0.60234,0.30117 0.82623,1.1274 1.42857,1.42857 0.42592,0.21296 1.09186,-0.33672 1.42857,0 0.33672,0.33672 -0.33671,1.09186 0,1.42857 0.33672,0.33672 0.95239,0 1.42858,0 9.52381,0 19.04762,0 28.57142,0 9.04762,0 18.09524,0 27.14286,0 3.33334,0 6.68036,0.30179 10,0 1.95532,-0.17775 3.77064,-1.1509 5.71429,-1.42857 1.41421,-0.20203 2.85714,0 4.28571,0 1.90476,0 3.80953,0 5.71429,0 10.95238,0 21.90476,0 32.85714,0 2.38095,0 4.76191,0 7.14286,0 1.42857,0 2.87658,0.23486 4.28571,0 1.48536,-0.24756 2.80911,-1.13325 4.28572,-1.42857 0.93388,-0.18678 1.90476,0 2.85714,0 1.42857,0 2.85714,0 4.28571,0 2.85715,0 5.71429,0 8.57143,0 6.66667,0 13.33334,0 20,0 24.76191,0 49.52381,0 74.28572,0 6.03892,0 12.96513,0.56063 18.57142,0 0.0353,-0.004 0,-5.47455 0,-8.57143 0,-0.47619 0,-0.95238 0,-1.42857 0,-12.38095 0,-24.7619 0,-37.14286 0,-6.19047 0,-12.38095 0,-18.57143 0,-1.90476 0,-3.80952 0,-5.71428 0,-0.47619 -0.47619,-1.42857 0,-1.42857 0.4762,0 0,0.95238 0,1.42857 l -325.71428,-7.14286"
       id="path2991"
       inkscape:connector-curvature="0"
       transform="translate(0,308.2677)" />
    <path
       style="fill:none;stroke:#000000;stroke-width:1px;stroke-linecap:butt;stroke-linejoin:miter;stroke-opacity:1"
       d="M 565.71429,168.3802 567.14286,16.951625"
       id="path2993"
       inkscape:connector-curvature="0"
       transform="translate(0,308.2677)" />
    <path
       style="fill:none;stroke:#000000;stroke-width:1px;stroke-linecap:butt;stroke-linejoin:miter;stroke-opacity:1"
       d="m 562.85714,24.094482 c -0.16289,2.671939 0.97506,7.596367 -1.42857,10 -0.33672,0.336718 -1.00265,-0.212959 -1.42857,0 -1.53567,0.767834 -2.82976,1.947172 -4.28571,2.857143 -2.35459,1.471618 -4.65936,3.043961 -7.14286,4.285714 -0.42592,0.212959 -1.00265,-0.212959 -1.42857,0 -1.53567,0.767834 -2.81346,1.97379 -4.28572,2.857143 -0.91305,0.547832 -2.10422,0.675648 -2.85714,1.428571 -0.75292,0.752924 -0.67565,2.10422 -1.42857,2.857143 -0.75292,0.752924 -2.10422,0.675649 -2.85714,1.428572 -0.33672,0.336717 0.30485,1.062752 0,1.428571 -2.15562,2.586736 -4.98725,4.556122 -7.14286,7.142857 -0.30485,0.36582 0.0591,0.956059 0,1.428572 -0.41765,3.341173 -0.76822,6.698213 -1.42857,10 -0.29532,1.476604 -1.21562,2.795002 -1.42857,4.285714 -0.37061,2.594219 0,8.392224 0,11.428572 0,0.982957 -0.27728,7.7396 0,8.571428 0.33671,1.010153 1.17032,1.824141 1.42857,2.857143 0.23098,0.923945 -0.23099,1.933198 0,2.857143 1.03579,4.143192 1.11453,1.671802 2.85714,4.285712 0.1774,0.2661 2.7656,5.62275 2.85714,5.71429 0.75293,0.75292 2.10422,0.67565 2.85715,1.42857 0.33671,0.33672 -0.15059,0.97682 0,1.42857 0.33671,1.01015 0.83793,1.97118 1.42857,2.85714 0.37355,0.56034 0.95238,0.95238 1.42857,1.42857 1.90476,1.90477 3.80952,3.80953 5.71428,5.71429 0.95239,0.95238 2.11004,1.73648 2.85715,2.85714 0.26414,0.39622 -0.21296,1.00266 0,1.42857 4.73797,4.73798 -0.67344,-1.34687 1.42857,2.85715 0.30117,0.60234 1.1274,0.82623 1.42857,1.42857 0.21296,0.42592 -0.15058,0.97682 0,1.42857 0.33672,1.01015 0.95238,1.90476 1.42857,2.85714 0.47619,0.95238 0.95238,1.90477 1.42857,2.85715 0.47619,0 1.09186,-0.33672 1.42857,0 0.4385,0.43849 -0.26509,4.65391 0,5.71428 0.25826,1.033 1.17033,1.82414 1.42858,2.85714 0.34648,1.38592 0,2.85715 0,4.28572 0,0.47619 0,0.95238 0,1.42857 0,0.47619 0.42591,1.21561 0,1.42857 -4.66537,2.33268 -2.11889,-1.38062 -2.85715,-2.85714 -0.30117,-0.60234 -0.82623,-1.1274 -1.42857,-1.42857 -1.34687,-0.67344 -2.88757,-0.86932 -4.28571,-1.42857 -0.98864,-0.39546 -1.86851,-1.03312 -2.85715,-1.42858 -2.15642,-0.86256 -8.02965,-2.61084 -10,-2.85714 -2.36256,-0.29532 -4.7619,0 -7.14285,0 -46.48019,0 0.1634,1.27043 -21.42857,-1.42857 -0.32312,-0.0404 -9.48115,0.25943 -10,0 -0.60234,-0.30117 -0.82624,-1.1274 -1.42858,-1.42857 -0.47284,-0.23642 -9.85729,0 -11.42857,0 -4.7619,0 -9.52381,0 -14.28571,0 -1.01305,0 -5.53651,-0.29206 -7.14286,0 -4.77788,0.8687 -9.48597,2.11872 -14.28571,2.85714 -2.35327,0.36204 -4.76191,0 -7.14286,0 -0.47619,0 -1.09185,-0.33672 -1.42857,0 -0.33672,0.33672 0.44213,1.25172 0,1.42857 -4.61599,1.8464 -9.39929,3.36951 -14.28572,4.28572 -3.35238,0.62857 -12.04761,-0.52381 -15.71428,0 -1.05409,0.15058 -1.84699,1.09185 -2.85714,1.42857 -0.45176,0.15058 -0.97071,-0.13082 -1.42858,0 -2.89581,0.82737 -5.67561,2.02977 -8.57142,2.85714 -3.82438,1.09268 1.83748,-3.60594 -5.71429,1.42857 -0.39621,0.26415 0.47619,1.42857 0,1.42857 -0.47619,0 0,-0.95238 0,-1.42857 0,-0.95238 0,-1.90476 0,-2.85714 0,-0.74703 -0.18782,-5.33865 0,-5.71429 0.65478,-1.30955 5.40405,-4.03752 5.71429,-4.28571 1.05172,-0.84138 1.90476,-1.90476 2.85714,-2.85714 0.47619,-0.47619 1.1274,-0.82624 1.42857,-1.42857 0.42592,-0.85184 -0.67343,-2.18371 0,-2.85715 1.21405,-1.21405 2.94502,-1.78458 4.28571,-2.85714 2.61324,-2.09059 4.52962,-5.05226 7.14286,-7.14286 3.19871,-2.55896 6.51132,-4.99597 10,-7.14285 6.69952,-4.12278 8.99847,-3.28418 14.28572,-8.57143 0.67343,-0.67344 -0.30117,-1.95364 0,-2.85715 0.81092,-2.43276 1.95673,-4.74176 2.85714,-7.142852 0.52874,-1.409968 0.59328,-3.032774 1.42857,-4.285714 4.68067,-7.021009 3.30082,-1.872244 8.57143,-7.142858 0.75292,-0.752923 1.09185,-1.84699 1.42857,-2.857142 0.15058,-0.451754 -0.33672,-1.091854 0,-1.428572 0.67344,-0.673435 2.18371,0.673435 2.85714,0 0.75293,-0.752923 0.74691,-2.039145 1.42857,-2.857143 2.15557,-2.586674 6.51502,-6.987346 10,-8.571428 6.117,-2.780451 14.80821,-5.487767 21.42858,-7.142858 2.3556,-0.588901 4.88841,-0.526796 7.14285,-1.428571 0.88427,-0.353705 -0.86173,-2.451622 0,-2.857143 7.92138,-3.727706 16.53856,-5.92255 24.28572,-10 1.51934,-0.799653 1.64309,-3.071662 2.85714,-4.285714 0.31318,-0.313176 3.79442,0.327526 4.28571,0 2.53701,-1.69134 4.47746,-4.233509 7.14286,-5.714286 1.71631,-0.953503 3.77064,-1.150907 5.71429,-1.428571 1.41421,-0.202031 3.09707,0.792429 4.28571,0 0.79243,-0.528286 0,-1.904762 0,-2.857143 0,-2.920635 -0.47619,-0.412699 1.42857,-1.428572 6.77501,-3.613336 12.79508,-8.774127 20,-11.428571 2.2784,-0.839409 4.76191,1.904762 7.14286,1.428571 0.93389,-0.186777 0.93389,-2.670365 0,-2.857142 -9.94452,-1.988904 -7.14286,3.681139 -7.14286,10"
       id="path2995"
       inkscape:connector-curvature="0"
       transform="translate(0,308.2677)" />
    <path
       style="fill:none;stroke:#000000;stroke-width:1px;stroke-linecap:butt;stroke-linejoin:miter;stroke-opacity:1"
       d="m 575.71429,39.808768 c 3.89644,0.487055 7.53212,2.370087 11.42857,2.857143 1.89005,0.236256 3.94576,-0.707411 5.71428,0 0.98864,0.395454 0.67565,2.104219 1.42857,2.857142 1.21406,1.214053 3.25556,1.4836 4.28572,2.857143 0.57143,0.761905 -0.42592,2.005308 0,2.857143 0.21296,0.425918 1.09185,-0.336717 1.42857,0 0.008,0.0076 -0.0119,4.237958 0,4.285714 0.25825,1.033003 1.03312,1.868507 1.42857,2.857143 0.55926,1.398144 1.06335,2.824829 1.42857,4.285715 0.1155,0.461972 0,0.952381 0,1.428571 0,0.919295 -0.24169,9.033222 0,10 0.25825,1.033002 1.17032,1.824141 1.42857,2.857143 0.23099,0.923945 0,1.904762 0,2.857143 0,1.904762 0,3.809524 0,5.714286 0,1.659528 0.32377,5.84779 0,7.142857 -0.25825,1.033002 -1.09185,1.84699 -1.42857,2.857143 -0.15058,0.451753 0,0.95238 0,1.428571 0,1.904762 0.37356,3.846515 0,5.714285 -0.13207,0.66036 -1.1274,0.82623 -1.42857,1.42857 -0.42592,0.85184 0.42592,2.00531 0,2.85714 -0.30117,0.60234 -1.21561,0.7897 -1.42857,1.42858 0,6.50326 0.67344,0.0817 -1.42857,4.28571 -0.21296,0.42592 0,0.95238 0,1.42857 0,1.83295 0.66221,7.52604 -1.42857,8.57143 -1.27776,0.63888 -2.93045,-0.45175 -4.28572,0 -0.9035,0.30117 0.74369,2.2622 0,2.85714 -2.16819,1.73456 -4.65935,3.04396 -7.14285,4.28572 -0.42592,0.21296 -1.09186,-0.33672 -1.42858,0 -0.33671,0.33672 0.33672,1.09185 0,1.42857 -0.33671,0.33672 -1.09185,-0.33672 -1.42857,0 -0.33671,0.33672 0.15059,0.97682 0,1.42857 -0.33671,1.01015 -0.67565,2.10422 -1.42857,2.85714 -0.33672,0.33672 -1.21561,-0.42591 -1.42857,0 -0.42592,0.85184 0,1.90477 0,2.85715 0,0.47619 0.33672,1.09185 0,1.42857 -0.33672,0.33672 -1.09185,0.33672 -1.42857,0 -0.33672,-0.33672 0,-0.95238 0,-1.42857 0,-0.47619 -0.45941,-1.30328 0,-1.42858 5.13637,-1.40082 10.56561,-1.50222 15.71428,-2.85714 3.93462,-1.03542 7.49738,-3.23739 11.42858,-4.28571 3.25348,-0.8676 6.65342,-1.05673 10,-1.42857 0.94655,-0.10518 1.95363,0.30117 2.85714,0 0.63888,-0.21296 0.76821,-1.2965 1.42857,-1.42858 1.86777,-0.37355 3.80952,0 5.71429,0 2.85714,0 5.71428,0 8.57142,0 3.33334,0 6.66667,0 10,0 0.4762,0 0.95239,0 1.42858,0 0.47619,0 1.09185,-0.33671 1.42857,0 0.33671,0.33672 -0.33672,1.09186 0,1.42858 0.33671,0.33671 1.00265,-0.21296 1.42857,0 1.53567,0.76783 2.94502,1.78458 4.28571,2.85714 1.05173,0.84138 1.90477,1.90476 2.85715,2.85714 0.95238,0.95238 1.90476,1.90476 2.85714,2.85714 0.47619,0.4762 1.05502,0.86824 1.42857,1.42858 0.59064,0.88596 1.09185,1.84699 1.42857,2.85714 0.15059,0.45175 -0.29747,1.05673 0,1.42857 1.68277,2.10346 3.80953,3.80952 5.71429,5.71429 0.95238,0.95238 1.70221,2.16418 2.85714,2.85714 1.82611,1.09566 3.62605,2.4395 5.71429,2.85714 1.96728,0.39346 1.42857,-3.55897 1.42857,-4.28571 0,-4.76191 0,-9.52381 0,-14.28572 0,-0.39939 0.11175,-6.91934 0,-7.14285 -0.60234,-1.20468 -2.04902,-1.77965 -2.85715,-2.85715 -0.63887,-0.85183 -0.78969,-2.0053 -1.42857,-2.85714 -0.80812,-1.0775 -2.2548,-1.65246 -2.85714,-2.85714 -2.26323,-4.52647 2.95629,-1.32943 -1.42857,-5.71429 -1.21405,-1.21405 -3.07166,-1.64309 -4.28572,-2.85714 -0.75292,-0.75292 -0.57673,-2.21827 -1.42857,-2.85714 -1.20467,-0.90351 -3.03277,-0.59328 -4.28571,-1.42858 -0.39622,-0.26414 0.26414,-1.03235 0,-1.42857 -0.74711,-1.12066 -1.73648,-2.11003 -2.85714,-2.85714 -0.39622,-0.26414 -1.27799,0.45175 -1.42858,0 -1.99323,-5.979712 4.2491,-4.296176 -5.71428,-7.142856 -1.37361,-0.392459 -2.85714,0 -4.28572,0 -1.42857,-0.952381 -2.75004,-2.089309 -4.28571,-2.857143 -0.42592,-0.212959 -1.19231,0.413449 -1.42857,0 -0.38534,-0.674343 -2.49489,-9.28231 -5.71429,-11.428572 -0.88596,-0.590641 -2.10422,-0.675648 -2.85714,-1.428571 -0.75292,-0.752923 -0.57674,-2.218267 -1.42857,-2.857143 -1.20468,-0.903508 -2.93885,-0.755136 -4.28572,-1.428572 -1.57719,-0.788599 -7.6071,-5.214199 -8.57142,-7.142857 -0.43936,-0.878705 0.45574,-6.231373 0,-7.142857 -0.30117,-0.602338 -1.12741,-0.826233 -1.42858,-1.428571 -1.75925,-3.518502 4.14677,1.289621 -1.42857,-4.285715 -0.33671,-0.336717 -1.09185,0.336718 -1.42857,0 -0.33672,-0.336717 0.33672,-1.091853 0,-1.428571 -0.33672,-0.336717 -1.09185,0.336718 -1.42857,0 -0.75292,-0.752923 -0.67565,-2.10422 -1.42857,-2.857143 -0.33672,-0.336717 -1.00265,0.212959 -1.42857,0 -1.53567,-0.767834 -2.91217,-1.826985 -4.28572,-2.857143 -0.53874,-0.404061 -0.82623,-1.127402 -1.42857,-1.428571 -0.42592,-0.212959 -0.95238,0 -1.42857,0 -1.0213,0 -7.84016,0.243756 -8.57143,0 -0.63887,-0.212959 -0.82623,-1.127402 -1.42857,-1.428572 -0.42592,-0.212958 -1.09185,0.336718 -1.42857,0 -0.33672,-0.336717 0.33672,-1.091853 0,-1.428571 -0.33672,-0.336717 -0.9666,0.115493 -1.42857,0 -4.73747,-1.184367 -4.28572,-0.04757 -4.28572,-2.857143"
       id="path2997"
       inkscape:connector-curvature="0"
       transform="translate(0,308.2677)" />
    <text
       xml:space="preserve"
       style="font-size:40px;font-style:normal;font-weight:normal;line-height:125%;letter-spacing:0px;word-spacing:0px;fill:#000000;fill-opacity:1;stroke:none;font-family:Sans"
       x="420"
       y="499.50504"
       id="text2999"
       sodipodi:linespacing="125%"><tspan
         sodipodi:role="line"
         id="tspan3001"
         x="420"
         y="499.50504"
         style="font-size:24px">peetic</tspan></text>
  </g>
</svg>
