<?xml version="1.0" encoding="UTF-8" standalone="no"?>
<!-- Created with Inkscape (http://www.inkscape.org/) -->

<svg
   xmlns:dc="http://purl.org/dc/elements/1.1/"
   xmlns:cc="http://creativecommons.org/ns#"
   xmlns:rdf="http://www.w3.org/1999/02/22-rdf-syntax-ns#"
   xmlns:svg="http://www.w3.org/2000/svg"
   xmlns="http://www.w3.org/2000/svg"
   xmlns:sodipodi="http://sodipodi.sourceforge.net/DTD/sodipodi-0.dtd"
   xmlns:inkscape="http://www.inkscape.org/namespaces/inkscape"
   width="1052.3622"
   height="744.09448"
   id="svg2"
   version="1.1"
   inkscape:version="0.48.3.1 r9886"
   sodipodi:docname="retrospective2.svg">
  <defs
     id="defs4">
    <marker
       inkscape:stockid="Arrow1Lend"
       orient="auto"
       refY="0.0"
       refX="0.0"
       id="Arrow1Lend"
       style="overflow:visible;">
      <path
         id="path3989"
         d="M 0.0,0.0 L 5.0,-5.0 L -12.5,0.0 L 5.0,5.0 L 0.0,0.0 z "
         style="fill-rule:evenodd;stroke:#000000;stroke-width:1.0pt;"
         transform="scale(0.8) rotate(180) translate(12.5,0)" />
    </marker>
  </defs>
  <sodipodi:namedview
     id="base"
     pagecolor="#ffffff"
     bordercolor="#666666"
     borderopacity="1.0"
     inkscape:pageopacity="0.0"
     inkscape:pageshadow="2"
     inkscape:zoom="0.7"
     inkscape:cx="548.2306"
     inkscape:cy="389.63474"
     inkscape:document-units="px"
     inkscape:current-layer="layer1"
     showgrid="false"
     inkscape:window-width="1366"
     inkscape:window-height="744"
     inkscape:window-x="0"
     inkscape:window-y="24"
     inkscape:window-maximized="1" />
  <metadata
     id="metadata7">
    <rdf:RDF>
      <cc:Work
         rdf:about="">
        <dc:format>image/svg+xml</dc:format>
        <dc:type
           rdf:resource="http://purl.org/dc/dcmitype/StillImage" />
        <dc:title></dc:title>
      </cc:Work>
    </rdf:RDF>
  </metadata>
  <g
     inkscape:label="Layer 1"
     inkscape:groupmode="layer"
     id="layer1"
     transform="translate(0,-308.2677)">
    <path
       style="fill:none;stroke:#000000;stroke-width:3;stroke-linecap:butt;stroke-linejoin:miter;stroke-miterlimit:4;stroke-opacity:1;stroke-dasharray:none"
       d="M 514.28571,22.665911 511.42857,348.3802"
       id="path2985"
       inkscape:connector-type="polyline"
       inkscape:connector-curvature="0"
       transform="translate(0,308.2677)" />
    <path
       style="fill:none;stroke:#000000;stroke-width:3;stroke-linecap:butt;stroke-linejoin:miter;stroke-miterlimit:4;stroke-opacity:1;stroke-dasharray:none"
       d="m 511.42857,342.66591 -395.71428,330"
       id="path3757"
       inkscape:connector-type="polyline"
       inkscape:connector-curvature="0"
       transform="translate(0,308.2677)" />
    <path
       style="fill:none;stroke:#000000;stroke-width:3;stroke-linecap:butt;stroke-linejoin:miter;stroke-miterlimit:4;stroke-opacity:1;stroke-dasharray:none"
       d="M 510,336.95163 894.28571,655.52305"
       id="path3778"
       inkscape:connector-type="polyline"
       inkscape:connector-curvature="0"
       transform="translate(0,308.2677)" />
    <path
       style="fill:none;stroke:#000000;stroke-width:3;stroke-linecap:butt;stroke-linejoin:miter;stroke-miterlimit:4;stroke-opacity:1;stroke-dasharray:none"
       d="M 510,649.50504 78.571429,470.93361"
       id="path3780"
       inkscape:connector-type="polyline"
       inkscape:connector-curvature="0" />
    <path
       style="fill:none;stroke:#000000;stroke-width:3;stroke-linecap:butt;stroke-linejoin:miter;stroke-miterlimit:4;stroke-opacity:1;stroke-dasharray:none"
       d="M 510,649.50504 961.42857,462.36218"
       id="path3782"
       inkscape:connector-type="polyline"
       inkscape:connector-curvature="0" />
    <flowRoot
       xml:space="preserve"
       id="flowRoot3784"
       style="font-size:40px;font-style:normal;font-weight:normal;line-height:125%;letter-spacing:0px;word-spacing:0px;fill:#000000;fill-opacity:1;stroke:none;font-family:Sans"
       transform="translate(178.57143,323.98199)"><flowRegion
         id="flowRegion3786"><rect
           id="rect3788"
           width="540"
           height="57.142857"
           x="492.85715"
           y="682.66589" /></flowRegion><flowPara
         id="flowPara3790"
         style="font-size:32px">Peetic, rétrospective 2</flowPara></flowRoot>    <text
       xml:space="preserve"
       style="font-size:40px;font-style:normal;font-weight:normal;line-height:125%;letter-spacing:0px;word-spacing:0px;fill:#000000;fill-opacity:1;stroke:none;font-family:Sans"
       x="524.28571"
       y="350.93362"
       id="text3792"
       sodipodi:linespacing="125%"><tspan
         sodipodi:role="line"
         id="tspan3794"
         x="524.28571"
         y="350.93362"
         style="font-size:20px">continuer à </tspan></text>
    <text
       xml:space="preserve"
       style="font-size:40px;font-style:normal;font-weight:normal;line-height:125%;letter-spacing:0px;word-spacing:0px;fill:#000000;fill-opacity:1;stroke:none;font-family:Sans"
       x="396.78085"
       y="350.21863"
       id="text3792-4"
       sodipodi:linespacing="125%"><tspan
         sodipodi:role="line"
         id="tspan3794-0"
         x="396.78085"
         y="350.21863"
         style="font-size:20px">arrêter de  </tspan></text>
    <text
       xml:space="preserve"
       style="font-size:40px;font-style:normal;font-weight:normal;line-height:125%;letter-spacing:0px;word-spacing:0px;fill:#000000;fill-opacity:1;stroke:none;font-family:Sans"
       x="720.07227"
       y="733.48883"
       id="text3792-4-3"
       sodipodi:linespacing="125%"
       transform="matrix(0.9617681,-0.27386514,0.27386514,0.9617681,0,0)"><tspan
         sodipodi:role="line"
         id="tspan3794-0-6"
         x="720.07227"
         y="733.48883"
         style="font-size:20px">plus de  </tspan></text>
    <text
       xml:space="preserve"
       style="font-size:40px;font-style:normal;font-weight:normal;line-height:125%;letter-spacing:0px;word-spacing:0px;fill:#000000;fill-opacity:1;stroke:none;font-family:Sans"
       x="189.13435"
       y="469.76508"
       id="text3792-4-3-2"
       sodipodi:linespacing="125%"
       transform="matrix(0.96789553,0.25135284,-0.25135284,0.96789553,0,0)"
       inkscape:transform-center-x="8.5714286"
       inkscape:transform-center-y="10"><tspan
         sodipodi:role="line"
         id="tspan3794-0-6-1"
         x="189.13435"
         y="469.76508"
         style="font-size:20px">moins de  </tspan></text>
    <text
       xml:space="preserve"
       style="font-size:40px;font-style:normal;font-weight:normal;line-height:125%;letter-spacing:0px;word-spacing:0px;fill:#000000;fill-opacity:1;stroke:none;font-family:Sans"
       x="1137.5693"
       y="160.51735"
       id="text3792-4-3-2-0"
       sodipodi:linespacing="125%"
       transform="matrix(0.74943715,0.66207549,-0.66207549,0.74943715,0,0)"><tspan
         sodipodi:role="line"
         id="tspan3794-0-6-1-2"
         x="1137.5693"
         y="160.51735"
         style="font-size:20px">démarrer à   </tspan></text>
    <text
       xml:space="preserve"
       style="font-size:40px;font-style:normal;font-weight:normal;line-height:125%;letter-spacing:0px;word-spacing:0px;fill:#000000;fill-opacity:1;stroke:none;font-family:Sans"
       x="529.40161"
       y="537.25409"
       id="text3880"
       sodipodi:linespacing="125%"
       transform="matrix(0.99242519,-0.12285047,0.12285047,0.99242519,0,0)"><tspan
         sodipodi:role="line"
         id="tspan3882"
         x="529.40161"
         y="537.25409"
         style="font-size:18px;font-style:normal;font-variant:normal;font-weight:normal;font-stretch:normal;font-family:Purisa;-inkscape-font-specification:Purisa">équipe autonome</tspan></text>
    <text
       xml:space="preserve"
       style="font-size:40px;font-style:normal;font-weight:normal;line-height:125%;letter-spacing:0px;word-spacing:0px;fill:#000000;fill-opacity:1;stroke:none;font-family:Sans"
       x="584.09229"
       y="488.01822"
       id="text3880-8"
       sodipodi:linespacing="125%"
       transform="matrix(0.99652019,0.08335174,-0.08335174,0.99652019,0,0)"><tspan
         sodipodi:role="line"
         id="tspan3882-9"
         x="584.09229"
         y="488.01822"
         style="font-size:18px;font-style:normal;font-variant:normal;font-weight:normal;font-stretch:normal;font-family:Purisa;-inkscape-font-specification:Purisa">résultat concret</tspan></text>
    <text
       xml:space="preserve"
       style="font-size:40px;font-style:normal;font-weight:normal;line-height:125%;letter-spacing:0px;word-spacing:0px;fill:#000000;fill-opacity:1;stroke:none;font-family:Sans"
       x="588.92371"
       y="359.26602"
       id="text3880-6"
       sodipodi:linespacing="125%"
       transform="matrix(0.99830319,0.05823001,-0.05823001,0.99830319,0,0)"><tspan
         sodipodi:role="line"
         id="tspan3882-1"
         x="588.92371"
         y="359.26602"
         style="font-size:18px;font-style:normal;font-variant:normal;font-weight:normal;font-stretch:normal;font-family:Purisa;-inkscape-font-specification:Purisa">apprendre à travailler ensemble</tspan></text>
    <text
       xml:space="preserve"
       style="font-size:40px;font-style:normal;font-weight:normal;line-height:125%;letter-spacing:0px;word-spacing:0px;fill:#000000;fill-opacity:1;stroke:none;font-family:Sans"
       x="665.64618"
       y="632.32806"
       id="text3880-6-4"
       sodipodi:linespacing="125%"
       transform="matrix(0.99830319,0.05823001,-0.05823001,0.99830319,0,0)"><tspan
         sodipodi:role="line"
         id="tspan3882-1-0"
         x="665.64618"
         y="632.32806"
         style="font-size:18px;font-style:normal;font-variant:normal;font-weight:normal;font-stretch:normal;font-family:Purisa;-inkscape-font-specification:Purisa">personnes pendant la review !</tspan></text>
    <text
       xml:space="preserve"
       style="font-size:40px;font-style:normal;font-weight:normal;line-height:125%;letter-spacing:0px;word-spacing:0px;fill:#000000;fill-opacity:1;stroke:none;font-family:Sans"
       x="911.00824"
       y="689.79877"
       id="text3880-6-4-9"
       sodipodi:linespacing="125%"
       transform="matrix(0.99830319,0.05823001,-0.05823001,0.99830319,0,0)"><tspan
         sodipodi:role="line"
         id="tspan3882-1-0-1"
         x="911.00824"
         y="689.79877"
         style="font-size:18px;font-style:normal;font-variant:normal;font-weight:normal;font-stretch:normal;font-family:Purisa;-inkscape-font-specification:Purisa">motivation !</tspan></text>
    <path
       style="fill:none;stroke:#000000;stroke-width:1px;stroke-linecap:butt;stroke-linejoin:miter;stroke-opacity:1;marker-end:url(#Arrow1Lend)"
       d="M 867.14285,735.21933 832.85714,696.6479"
       id="path3980"
       inkscape:connector-type="polyline"
       inkscape:connector-curvature="0"
       sodipodi:nodetypes="ccc" />
    <text
       xml:space="preserve"
       style="font-size:40px;font-style:normal;font-weight:normal;line-height:125%;letter-spacing:0px;word-spacing:0px;fill:#000000;fill-opacity:1;stroke:none;font-family:Sans"
       x="622.42529"
       y="717.26611"
       id="text3880-6-4-0"
       sodipodi:linespacing="125%"
       transform="matrix(0.98475863,-0.17392655,0.17392655,0.98475863,0,0)"><tspan
         sodipodi:role="line"
         id="tspan3882-1-0-16"
         x="622.42529"
         y="717.26611"
         style="font-size:18px;font-style:normal;font-variant:normal;font-weight:normal;font-stretch:normal;font-family:Purisa;-inkscape-font-specification:Purisa">respect de &quot;fini&quot;</tspan></text>
    <path
       style="fill:none;stroke:#000000;stroke-width:1px;stroke-linecap:butt;stroke-linejoin:miter;stroke-opacity:1;display:inline"
       d="M 740,305.52305 898.57143,271.23734"
       id="path4447"
       inkscape:connector-type="polyline"
       inkscape:connector-curvature="0"
       transform="translate(0,308.2677)" />
    <path
       style="fill:none;stroke:#000000;stroke-width:1px;stroke-linecap:butt;stroke-linejoin:miter;stroke-opacity:1"
       d="M 732.85714,325.52305 914.28571,278.3802"
       id="path4449"
       inkscape:connector-type="polyline"
       inkscape:connector-curvature="0"
       transform="translate(0,308.2677)" />
    <path
       style="fill:none;stroke:#000000;stroke-width:1px;stroke-linecap:butt;stroke-linejoin:miter;stroke-opacity:1;display:inline"
       d="m 718.57143,316.95163 200,-45.71429"
       id="path4451"
       inkscape:connector-type="polyline"
       inkscape:connector-curvature="0"
       transform="translate(0,308.2677)" />
    <text
       xml:space="preserve"
       style="font-size:40px;font-style:normal;font-weight:normal;line-height:125%;letter-spacing:0px;word-spacing:0px;fill:#000000;fill-opacity:1;stroke:none;font-family:Sans"
       x="121.24407"
       y="594.19598"
       id="text3880-6-4-1"
       sodipodi:linespacing="125%"
       transform="matrix(0.99830319,0.05823001,-0.05823001,0.99830319,0,0)"><tspan
         sodipodi:role="line"
         id="tspan3882-1-0-0"
         x="121.24407"
         y="594.19598"
         style="font-size:18px;font-style:normal;font-variant:normal;font-weight:normal;font-stretch:normal;font-family:Purisa;-inkscape-font-specification:Purisa">longueurs dans les reviews !</tspan></text>
    <text
       xml:space="preserve"
       style="font-size:40px;font-style:normal;font-weight:normal;line-height:125%;letter-spacing:0px;word-spacing:0px;fill:#000000;fill-opacity:1;stroke:none;font-family:Sans"
       x="155.09816"
       y="913.61169"
       id="text3880-6-4-1-2"
       sodipodi:linespacing="125%"
       transform="matrix(0.99010558,-0.14032438,0.14032438,0.99010558,0,0)"><tspan
         sodipodi:role="line"
         id="tspan3882-1-0-0-0"
         x="155.09816"
         y="913.61169"
         style="font-size:18px;font-style:normal;font-variant:normal;font-weight:normal;font-stretch:normal;font-family:Purisa;-inkscape-font-specification:Purisa">reformuler la notion de fini</tspan><tspan
         sodipodi:role="line"
         x="155.09816"
         y="936.11169"
         style="font-size:18px;font-style:normal;font-variant:normal;font-weight:normal;font-stretch:normal;font-family:Purisa;-inkscape-font-specification:Purisa"
         id="tspan4495">pour mieux la respecter. (atteignable)</tspan></text>
    <text
       xml:space="preserve"
       style="font-size:40px;font-style:normal;font-weight:normal;line-height:125%;letter-spacing:0px;word-spacing:0px;fill:#000000;fill-opacity:1;stroke:none;font-family:Sans"
       x="602.85712"
       y="546.95166"
       id="text4497"
       sodipodi:linespacing="125%"
       transform="translate(0,308.2677)"><tspan
         sodipodi:role="line"
         id="tspan4499"
         x="602.85712"
         y="546.95166"> </tspan></text>
    <text
       xml:space="preserve"
       style="font-size:40px;font-style:normal;font-weight:normal;line-height:125%;letter-spacing:0px;word-spacing:0px;fill:#000000;fill-opacity:1;stroke:none;font-family:Sans"
       x="424.77045"
       y="907.85712"
       id="text3880-6-4-1-2-8"
       sodipodi:linespacing="125%"
       transform="matrix(0.99927308,0.03812237,-0.03812237,0.99927308,0,0)"><tspan
         sodipodi:role="line"
         x="424.77045"
         y="907.85712"
         style="font-size:18px;font-style:normal;font-variant:normal;font-weight:normal;font-stretch:normal;font-family:Purisa;-inkscape-font-specification:Purisa"
         id="tspan4495-2">réunion de présentation d'une vision </tspan><tspan
         sodipodi:role="line"
         x="424.77045"
         y="930.35712"
         style="font-size:18px;font-style:normal;font-variant:normal;font-weight:normal;font-stretch:normal;font-family:Purisa;-inkscape-font-specification:Purisa"
         id="tspan4527">à plus long terme </tspan></text>
    <text
       xml:space="preserve"
       style="font-size:40px;font-style:normal;font-weight:normal;line-height:125%;letter-spacing:0px;word-spacing:0px;fill:#000000;fill-opacity:1;stroke:none;font-family:Sans"
       x="829.76508"
       y="768.94958"
       id="text3880-6-4-7"
       sodipodi:linespacing="125%"
       transform="matrix(0.99830319,0.05823001,-0.05823001,0.99830319,0,0)"><tspan
         sodipodi:role="line"
         id="tspan3882-1-0-4"
         x="829.76508"
         y="768.94958"
         style="font-size:18px;font-style:normal;font-variant:normal;font-weight:normal;font-stretch:normal;font-family:Purisa;-inkscape-font-specification:Purisa">pains au chocolat</tspan></text>
    <text
       xml:space="preserve"
       style="font-size:40px;font-style:normal;font-weight:normal;line-height:125%;letter-spacing:0px;word-spacing:0px;fill:#000000;fill-opacity:1;stroke:none;font-family:Sans"
       x="150.77618"
       y="688.49402"
       id="text3880-6-4-1-6"
       sodipodi:linespacing="125%"
       transform="matrix(0.99968893,-0.02494089,0.02494089,0.99968893,0,0)"
       inkscape:transform-center-x="37.142857"
       inkscape:transform-center-y="45.714286"><tspan
         sodipodi:role="line"
         id="tspan3882-1-0-0-1"
         x="150.77618"
         y="688.49402"
         style="font-size:18px;font-style:normal;font-variant:normal;font-weight:normal;font-stretch:normal;font-family:Purisa;-inkscape-font-specification:Purisa">blocages de la plate-forme</tspan><tspan
         sodipodi:role="line"
         x="150.77618"
         y="710.99402"
         style="font-size:18px;font-style:normal;font-variant:normal;font-weight:normal;font-stretch:normal;font-family:Purisa;-inkscape-font-specification:Purisa"
         id="tspan4571">d'intégration continue</tspan></text>
    <text
       xml:space="preserve"
       style="font-size:40px;font-style:normal;font-weight:normal;line-height:125%;letter-spacing:0px;word-spacing:0px;fill:#000000;fill-opacity:1;stroke:none;font-family:Sans"
       x="244.39133"
       y="393.64505"
       id="text3880-6-4-1-3"
       sodipodi:linespacing="125%"
       transform="matrix(0.99830319,0.05823001,-0.05823001,0.99830319,0,0)"><tspan
         sodipodi:role="line"
         id="tspan3882-1-0-0-02"
         x="244.39133"
         y="393.64505"
         style="font-size:18px;font-style:normal;font-variant:normal;font-weight:normal;font-stretch:normal;font-family:Purisa;-inkscape-font-specification:Purisa">ouvrir trop de tâches !</tspan></text>
    <text
       xml:space="preserve"
       style="font-size:40px;font-style:normal;font-weight:normal;line-height:125%;letter-spacing:0px;word-spacing:0px;fill:#000000;fill-opacity:1;stroke:none;font-family:Sans"
       x="220.19148"
       y="467.98254"
       id="text3880-6-4-1-0"
       sodipodi:linespacing="125%"
       transform="matrix(0.99983723,-0.01804211,0.01804211,0.99983723,0,0)"><tspan
         sodipodi:role="line"
         id="tspan3882-1-0-0-00"
         x="220.19148"
         y="467.98254"
         style="font-size:18px;font-style:normal;font-variant:normal;font-weight:normal;font-stretch:normal;font-family:Purisa;-inkscape-font-specification:Purisa">valider en fin d'itération</tspan></text>
    <text
       xml:space="preserve"
       style="font-size:40px;font-style:normal;font-weight:normal;line-height:125%;letter-spacing:0px;word-spacing:0px;fill:#000000;fill-opacity:1;stroke:none;font-family:Sans"
       x="339.17111"
       y="485.91373"
       id="text3880-6-4-1-3-8"
       sodipodi:linespacing="125%"
       transform="matrix(0.99830319,0.05823001,-0.05823001,0.99830319,0,0)"><tspan
         sodipodi:role="line"
         id="tspan3882-1-0-0-02-5"
         x="339.17111"
         y="485.91373"
         style="font-size:18px;font-style:normal;font-variant:normal;font-weight:normal;font-stretch:normal;font-family:Purisa;-inkscape-font-specification:Purisa">limiter les</tspan><tspan
         sodipodi:role="line"
         x="339.17111"
         y="508.41373"
         style="font-size:18px;font-style:normal;font-variant:normal;font-weight:normal;font-stretch:normal;font-family:Purisa;-inkscape-font-specification:Purisa"
         id="tspan4626">dépendances entre</tspan><tspan
         sodipodi:role="line"
         x="339.17111"
         y="530.91376"
         style="font-size:18px;font-style:normal;font-variant:normal;font-weight:normal;font-stretch:normal;font-family:Purisa;-inkscape-font-specification:Purisa"
         id="tspan4624">les tâches</tspan></text>
    <text
       xml:space="preserve"
       style="font-size:40px;font-style:normal;font-weight:normal;line-height:125%;letter-spacing:0px;word-spacing:0px;fill:#000000;fill-opacity:1;stroke:none;font-family:Sans"
       x="404.28571"
       y="462.66592"
       id="text4628"
       sodipodi:linespacing="125%"
       transform="translate(0,308.2677)"><tspan
         sodipodi:role="line"
         id="tspan4630"></tspan></text>
    <text
       xml:space="preserve"
       style="font-size:40px;font-style:normal;font-weight:normal;line-height:125%;letter-spacing:0px;word-spacing:0px;fill:#000000;fill-opacity:1;stroke:none;font-family:Sans"
       x="370.87808"
       y="783.87042"
       id="text3880-6-4-1-6-1"
       sodipodi:linespacing="125%"
       transform="matrix(0.99968893,-0.02494089,0.02494089,0.99968893,0,0)"
       inkscape:transform-center-x="37.142857"
       inkscape:transform-center-y="45.714286"><tspan
         sodipodi:role="line"
         x="370.87808"
         y="783.87042"
         style="font-size:18px;font-style:normal;font-variant:normal;font-weight:normal;font-stretch:normal;font-family:Purisa;-inkscape-font-specification:Purisa"
         id="tspan4571-4">Trancher sur la question </tspan><tspan
         sodipodi:role="line"
         x="370.87808"
         y="806.37042"
         style="font-size:18px;font-style:normal;font-variant:normal;font-weight:normal;font-stretch:normal;font-family:Purisa;-inkscape-font-specification:Purisa"
         id="tspan4658">&quot;SQL Server / MySQL&quot;</tspan></text>
    <text
       xml:space="preserve"
       style="font-size:40px;font-style:normal;font-weight:normal;line-height:125%;letter-spacing:0px;word-spacing:0px;fill:#000000;fill-opacity:1;stroke:none;font-family:Sans"
       x="127.86108"
       y="830.86823"
       id="text3880-6-4-1-6-7"
       sodipodi:linespacing="125%"
       transform="matrix(0.98905595,-0.14754095,0.14754095,0.98905595,0,0)"
       inkscape:transform-center-x="30.752041"
       inkscape:transform-center-y="50.493143"><tspan
         sodipodi:role="line"
         x="127.86108"
         y="830.86823"
         style="font-size:18px;font-style:normal;font-variant:normal;font-weight:normal;font-stretch:normal;font-family:Purisa;-inkscape-font-specification:Purisa"
         id="tspan4571-0">retards</tspan></text>
    <text
       xml:space="preserve"
       style="font-size:40px;font-style:normal;font-weight:normal;line-height:125%;letter-spacing:0px;word-spacing:0px;fill:#000000;fill-opacity:1;stroke:none;font-family:Sans"
       x="66.04277"
       y="744.82678"
       id="text3880-6-4-1-6-71"
       sodipodi:linespacing="125%"
       transform="matrix(0.99968893,-0.02494089,0.02494089,0.99968893,0,0)"
       inkscape:transform-center-x="37.142857"
       inkscape:transform-center-y="45.714286"><tspan
         sodipodi:role="line"
         x="66.04277"
         y="744.82678"
         style="font-size:18px;font-style:normal;font-variant:normal;font-weight:normal;font-stretch:normal;font-family:Purisa;-inkscape-font-specification:Purisa"
         id="tspan4571-9">d'intervenants durant la review</tspan></text>
    <path
       style="fill:none;stroke:#f60000;stroke-width:2;stroke-linecap:butt;stroke-linejoin:miter;stroke-opacity:1;stroke-miterlimit:4;stroke-dasharray:none;fill-opacity:1"
       d="m 521.42857,505.52305 c -4.7619,0 -9.52381,0 -14.28571,0 -1.90476,0 -3.82118,-0.21034 -5.71429,0 -2.41325,0.26814 -4.7268,1.18697 -7.14286,1.42858 -2.36913,0.23691 -4.80814,-0.46695 -7.14285,0 -2.51457,0.50291 -4.63956,2.30085 -7.14286,2.85714 -1.8594,0.4132 -3.80952,0 -5.71429,0 -3.80952,0 -7.61904,0 -11.42857,0 -1.42857,0 -2.86817,-0.17719 -4.28571,0 -2.40936,0.30117 -4.7296,1.16043 -7.14286,1.42857 -1.89311,0.21035 -3.80952,0 -5.71428,0 -2.38096,0 -4.76191,0 -7.14286,0 -7.61905,0 -15.2381,0 -22.85714,0 -4.76191,0 -9.52381,0 -14.28572,0 -2.85714,0 -5.743,-0.40406 -8.57143,0 -1.49071,0.21296 -2.795,1.21561 -4.28571,1.42857 -1.88562,0.26937 -3.80953,0 -5.71429,0 -4.28571,0 -8.57143,0 -12.85714,0 -0.37313,0 -7.85321,-0.2394 -8.57143,0 -1.01015,0.33672 -1.82414,1.17032 -2.85714,1.42857 -0.92395,0.23099 -1.90476,0 -2.85714,0 -1.42858,0 -2.85715,0 -4.28572,0 -15.21091,0 5.16412,-0.37355 -12.85714,1.42857 -2.36914,0.23692 -4.8186,-0.5165 -7.14286,0 -2.07888,0.46198 -3.66663,2.2721 -5.71428,2.85715 -1.37361,0.39246 -2.93046,-0.45176 -4.28572,0 -1.62882,0.54294 -2.75004,2.08931 -4.28571,2.85714 -1.34687,0.67343 -2.85715,0.95238 -4.28572,1.42857 -1.42857,0.47619 -2.80035,1.18101 -4.28571,1.42857 -1.40914,0.23486 -2.87658,-0.23485 -4.28572,0 -1.48535,0.24756 -2.85714,0.95238 -4.28571,1.42857 -2.85714,0.95238 -5.80325,1.67078 -8.57143,2.85715 -1.9574,0.83888 -3.76824,1.99223 -5.71428,2.85714 -2.34335,1.04149 -4.79952,1.81566 -7.14286,2.85714 -1.94604,0.86491 -3.80953,1.90476 -5.71429,2.85715 -1.90476,0.95238 -3.86528,1.80057 -5.71428,2.85714 -1.49071,0.85183 -2.81346,1.97379 -4.28572,2.85714 -0.91305,0.54783 -1.8685,1.03312 -2.85714,1.42857 -1.39814,0.55926 -3.08104,0.52507 -4.28571,1.42857 -0.85184,0.63888 -0.67565,2.10422 -1.42858,2.85715 -1.21405,1.21405 -2.91217,1.82698 -4.28571,2.85714 -1.0775,0.80812 -1.65247,2.2548 -2.85714,2.85714 -1.34687,0.67344 -3.03278,0.59328 -4.28572,1.42857 -0.39621,0.26415 0.21296,1.00266 0,1.42858 -0.30117,0.60233 -0.86824,1.05501 -1.42857,1.42857 -0.88596,0.59064 -2.10422,0.67564 -2.85714,1.42857 -3.11968,3.11967 -0.29696,2.31944 -1.42857,5.71428 -0.21296,0.63888 -1.21562,0.7897 -1.42857,1.42858 -0.30117,0.9035 0.18677,1.92325 0,2.85714 -0.29532,1.4766 -1.13325,2.80911 -1.42858,4.28571 -0.28379,1.41899 0,7.52531 0,8.57143 0,0.95238 0,1.90476 0,2.85714 0,0.95238 -0.23098,1.9332 0,2.85715 2.40563,9.62248 0.0221,0.0221 2.85715,2.85714 5.57533,5.57533 -0.33068,0.76721 1.42857,4.28571 0.30117,0.60234 0.95238,0.95238 1.42857,1.42858 0.95238,0.95238 2.04902,1.77964 2.85714,2.85714 0.63888,0.85183 0.83793,1.97118 1.42857,2.85714 1.38999,2.08499 2.07772,1.28 4.28572,2.85714 2.48116,1.77226 4.98681,3.55825 7.14286,5.71429 0.33671,0.33672 -0.45176,1.27799 0,1.42857 1.35526,0.45175 3.09707,-0.79243 4.28571,0 0.79243,0.52829 -0.42592,2.00531 0,2.85714 0.21296,0.42592 0.95238,0 1.42857,0 0.47619,0 0.95238,0 1.42857,0 4.51543,0 -3.66559,-0.11549 7.14286,1.42858 1.41421,0.20203 2.8715,-0.20204 4.28571,0 1.94366,0.27766 3.76607,1.18504 5.71429,1.42857 2.83508,0.35438 5.71429,0 8.57143,0 4.7619,0 9.52381,0 14.28571,0 2.38096,0 4.76191,0 7.14286,0 1.42857,0 2.93045,0.45175 4.28571,0 1.62883,-0.54294 2.6569,-2.31421 4.28572,-2.85715 1.35526,-0.45175 2.87658,0.23486 4.28571,0 1.48536,-0.24756 2.80036,-1.18101 4.28572,-1.42857 1.40913,-0.23485 2.87658,0.23486 4.28571,0 2.97072,-0.49512 5.60071,-2.36202 8.57143,-2.85714 1.40913,-0.23486 2.88488,0.28017 4.28571,0 5.74875,-1.14975 0.65637,-1.04247 4.28572,-2.85714 1.34687,-0.67344 2.82483,-1.06335 4.28571,-1.42857 0.46198,-0.1155 1.09186,0.33671 1.42857,0 0.33672,-0.33672 -0.42591,-1.21562 0,-1.42858 1.42858,-0.71428 2.85715,0.35715 4.28572,0 2.92177,-0.73044 5.71428,-1.90476 8.57143,-2.85714 1.42857,-0.47619 2.85714,-0.95238 4.28571,-1.42857 1.42857,-0.47619 2.93885,-0.75514 4.28572,-1.42857 0.60233,-0.30117 0.82623,-1.1274 1.42857,-1.42857 0.42592,-0.21296 0.95238,0 1.42857,0 0.95238,0 1.92326,0.18677 2.85714,0 1.47661,-0.29532 2.82483,-1.06335 4.28572,-1.42857 0.46197,-0.1155 0.95238,0 1.42857,0 1.42857,0 2.87658,0.23485 4.28571,0 1.48536,-0.24756 2.80911,-1.13326 4.28572,-1.42858 5.35086,-1.07017 0.83987,2.43721 8.57142,-1.42857 0.42592,-0.21296 -0.45175,-1.27798 0,-1.42857 1.35527,-0.45175 2.85715,0 4.28572,0 3.80952,0 7.61905,0 11.42857,0 1.90476,0 3.82867,0.26937 5.71429,0 1.94365,-0.27766 3.77063,-1.15091 5.71428,-1.42857 1.41422,-0.20203 3.00796,0.63888 4.28572,0 0.95238,-0.47619 0.47619,-2.38095 1.42857,-2.85714 1.27775,-0.63888 2.85714,0 4.28571,0 1.42857,0 2.85714,0 4.28572,0 1.42857,0 2.8715,0.20203 4.28571,0 1.94365,-0.27767 3.77064,-1.15091 5.71429,-1.42857 1.41421,-0.20204 2.85714,0 4.28571,0 0.47619,0 0.9666,0.11549 1.42857,0 2.92177,-0.73045 5.61822,-2.26651 8.57143,-2.85715 0.93389,-0.18677 1.90476,0 2.85714,0 3.33334,0 6.69241,0.41345 10,0 3.89645,-0.48705 7.53213,-2.37008 11.42857,-2.85714 1.89006,-0.23626 3.80953,0 5.71429,0 2.85714,0 5.71429,0 8.57143,0 1.42857,0 2.88488,0.28017 4.28571,0 1.04412,-0.20882 1.81303,-1.21975 2.85715,-1.42857 1.38645,-0.27729 9.73343,0 11.42857,0 0.95238,0 1.92325,0.18678 2.85714,0 11.74582,-3.91527 -3.01169,0.50195 8.57143,-1.42857 14.2324,-2.37207 -7.7155,-0.64271 10,-2.85715 3.30759,-0.41345 6.66667,0 10,0 1.90476,0 3.83544,0.31314 5.71428,0 1.05031,-0.17505 1.80684,-1.25352 2.85715,-1.42857 17.14285,-2.85714 -1.42857,1.42857 8.57143,0 24.79118,-3.5416 -5.18992,0.46656 11.42857,-2.85714 0.93388,-0.18678 1.90476,0 2.85714,0 1.42857,0 2.85714,0 4.28571,0 1.90477,0 3.82867,0.26937 5.71429,0 1.49071,-0.21296 2.80036,-1.18101 4.28571,-1.42857 3.87736,-0.64623 8.9798,0.64622 12.85715,0 1.48536,-0.24756 2.80035,-1.18101 4.28571,-1.42857 1.40914,-0.23486 2.88489,0.28016 4.28572,0 1.04411,-0.20883 1.84699,-1.09186 2.85714,-1.42857 0.45175,-0.15059 0.97682,0.15058 1.42857,0 1.01015,-0.33672 1.81303,-1.21975 2.85714,-1.42858 1.40083,-0.28016 2.93046,0.45176 4.28572,0 0.45175,-0.15058 -0.33672,-1.09185 0,-1.42857 0.33671,-0.33672 0.95238,0 1.42857,0 1.90476,0 3.94576,0.70741 5.71428,0 1.25054,-0.50021 1.65247,-2.2548 2.85715,-2.85714 1.7561,-0.87805 3.85165,-0.8077 5.71428,-1.42857 1.01016,-0.33672 1.97118,-0.83793 2.85715,-1.42857 0.56033,-0.37356 0.77524,-1.26524 1.42857,-1.42857 1.38592,-0.34648 2.93045,0.45175 4.28571,0 0.45176,-0.15059 -0.38095,-1.14286 0,-1.42858 3.5939,-2.69542 7.88251,-4.3848 11.42857,-7.14285 0.8405,-0.65372 0.67565,-2.10422 1.42857,-2.85715 0.33672,-0.33671 1.09186,0.33672 1.42858,0 0.67343,-0.67343 -0.52829,-2.06471 0,-2.85714 0.74711,-1.12066 2.11003,-1.73648 2.85714,-2.85714 0.26414,-0.39622 0,-0.95238 0,-1.42857 0.47619,-0.95238 0.67565,-2.10422 1.42857,-2.85715 0.33672,-0.33671 1.09185,0.33672 1.42857,0 0.33672,-0.33671 -0.26414,-1.03235 0,-1.42857 0.74711,-1.12066 2.25481,-1.65246 2.85714,-2.85714 0.16421,-0.32841 0.16421,-6.81445 0,-7.14286 -0.21295,-0.42592 -1.00265,0.21296 -1.42857,0 -0.60234,-0.30117 -0.95238,-0.95238 -1.42857,-1.42857 -0.95238,-0.95238 -1.70221,-2.16418 -2.85714,-2.85714 -12.06724,-7.24035 1.57017,2.05664 -7.14286,-1.42857 -1.59413,-0.63765 -2.75004,-2.08931 -4.28571,-2.85715 -2.04945,-1.02472 -8.16914,-2.39942 -10,-2.85714 -1.90476,-0.47619 -3.77762,-1.10579 -5.71429,-1.42857 -0.93942,-0.15657 -1.90476,0 -2.85714,0 -1.42857,0 -2.85714,0 -4.28572,0 -3.80952,0 -7.61904,0 -11.42857,0 -13.33333,0 -26.66666,0 -40,0 -3.80952,0 -7.61904,0 -11.42857,0 -1.74573,0 -3.9371,0.22215 -5.71428,0 -3.33334,-0.47619 -6.66667,-0.95238 -10,-1.42857 -1.90477,-0.95238 -3.64829,-2.34064 -5.71429,-2.85714 -1.84789,-0.46198 -3.80952,0 -5.71429,0 -1.90476,0 -3.80952,0 -5.71428,0 -0.95238,0 -1.90476,0 -2.85714,0 -0.47619,0 -1.09186,0.33671 -1.42858,0 -0.33671,-0.33672 0.33672,-1.09186 0,-1.42858 -0.33671,-0.33671 -0.95238,0 -1.42857,0 -2.85714,0 -5.73176,0.31552 -8.57143,0 -1.49663,-0.16629 -2.82482,-1.06335 -4.28571,-1.42857 -0.46197,-0.11549 -0.95886,-0.0783 -1.42857,0 -2.39507,0.39918 -4.74779,1.0294 -7.14286,1.42857 -3.32136,0.55356 -7.2415,-0.50237 -10,1.42858 -2.61694,1.83185 -2.85714,5.71428 -4.28571,8.57142"
       id="path4712"
       inkscape:connector-curvature="0"
       transform="translate(0,308.2677)" />
    <text
       xml:space="preserve"
       style="font-size:40px;font-style:normal;font-weight:normal;line-height:125%;letter-spacing:0px;word-spacing:0px;fill:#ff0000;fill-opacity:1;stroke:none;font-family:Sans"
       x="40.89304"
       y="1044.7556"
       id="text3792-4-3-2-0-2"
       sodipodi:linespacing="125%"
       transform="matrix(0.99751489,-0.07045593,0.07045593,0.99751489,0,0)"><tspan
         sodipodi:role="line"
         id="tspan3794-0-6-1-2-8"
         x="40.89304"
         y="1044.7556"
         style="font-size:20px;fill:#ff0000">point d'amélioration   </tspan></text>
    <path
       style="fill:none;stroke:#fe0000;stroke-width:2;stroke-linecap:butt;stroke-linejoin:miter;stroke-miterlimit:4;stroke-opacity:1;stroke-dasharray:none"
       d="m 227.14286,692.66591 c 0,0 5.94096,-37.74993 16.68886,-52.72812 8.02607,-11.18507 33.31114,-24.41474 33.31114,-24.41474"
       id="path4737"
       inkscape:connector-type="polyline"
       inkscape:connector-curvature="0"
       transform="translate(0,308.2677)"
       sodipodi:nodetypes="csc" />
  </g>
</svg>
